<?xml version="1.0" encoding="UTF-8"?>
<!DOCTYPE svg PUBLIC "-//W3C//DTD SVG 1.1//EN" "http://www.w3.org/Graphics/SVG/1.1/DTD/svg11.dtd">
<!-- Creator: CorelDRAW X8 -->
<svg xmlns="http://www.w3.org/2000/svg" xml:space="preserve" width="102.22mm" height="27.9196mm" version="1.1" style="shape-rendering:geometricPrecision; text-rendering:geometricPrecision; image-rendering:optimizeQuality; fill-rule:evenodd; clip-rule:evenodd"
viewBox="0 0 10222 2792"
 xmlns:xlink="http://www.w3.org/1999/xlink">
 <defs>
  <style type="text/css">
   <![CDATA[
    .fil3 {fill:#939494}
    .fil2 {fill:#FF4800}
    .fil1 {fill:black;fill-rule:nonzero}
    .fil0 {fill:#FF4800;fill-rule:nonzero}
   ]]>
  </style>
 </defs>
 <g id="Слой_x0020_1">
  <metadata id="CorelCorpID_0Corel-Layer"/>
  <g id="_2909956828480">
   <polygon class="fil0" points="4042,6 1165,2792 1094,2792 3970,6 "/>
   <path class="fil1" d="M2696 2017c281,0 479,-146 479,-404l0 -4c0,-227 -149,-320 -414,-391 -225,-60 -281,-84 -281,-171l0 -4c0,-65 56,-114 168,-114 92,0 182,33 277,89l195 -188c-131,-99 -284,-154 -468,-154 -269,0 -457,157 -457,393l0 4c0,257 168,333 432,398 218,54 263,93 263,166l0 4c0,76 -69,122 -188,122 -131,0 -241,-47 -346,-124l-193 186c153,130 342,192 533,192zm840 -19l287 0 0 -391 217 0c293,0 527,-154 527,-458l0 -4c0,-268 -188,-450 -499,-450l-532 0 0 1303zm287 -646l0 -398 221 0c144,0 233,68 233,197l0 4c0,111 -84,197 -227,197l-227 0zm826 646l293 0 119 -292 551 0 119 292 300 0 -559 -1313 -264 0 -559 1313zm514 -545l173 -423 174 423 -347 0zm1181 545l286 0 0 -417 226 0 279 417 335 0 -318 -465c165,-62 279,-194 279,-404l0 -4c0,-125 -37,-224 -112,-298 -87,-88 -214,-132 -380,-132l-595 0 0 1303zm286 -670l0 -374 285 0c142,0 226,61 226,186l0 3c0,112 -79,185 -220,185l-291 0zm1475 670l287 0 0 -1039 396 0 0 -264 -1080 0 0 264 397 0 0 1039zm735 0l293 0 119 -292 551 0 119 292 300 0 -559 -1313 -264 0 -559 1313zm514 -545l174 -423 173 423 -347 0z"/>
   <path class="fil2" d="M1875 593l237 -230c0,0 0,-1 0,-1 -233,-232 -546,-362 -875,-362 -329,0 -641,130 -874,362l-1 1c-232,233 -362,545 -362,874 0,316 119,617 335,847l237 -230c-45,-47 -84,-100 -117,-156 -19,-32 -39,-68 -55,-102l-1 -2c-92,-208 -101,-446 -26,-662 79,-228 245,-414 462,-519 217,-105 466,-119 694,-40 113,39 217,100 306,180l3 1 17 17 19 18 0 3 1 1z"/>
   <path class="fil0" d="M3668 2695c-31,0 -58,-6 -79,-17 -22,-11 -42,-27 -60,-49l33 -32c33,36 67,54 103,54 32,0 60,-11 84,-33 23,-22 37,-49 41,-81l-156 0 0 -43 155 0c-4,-30 -17,-56 -40,-78 -23,-21 -50,-32 -82,-32 -38,0 -73,17 -105,50l-29 -32c36,-42 82,-62 138,-62 49,0 90,17 122,52 33,35 49,78 49,127 0,48 -17,89 -50,124 -34,34 -75,52 -124,52zm280 -8l0 -340 51 0 0 147 195 0 0 -147 51 0 0 340 -51 0 0 -149 -195 0 0 149 -51 0zm572 8c-47,0 -88,-17 -120,-50 -33,-33 -49,-76 -49,-128 0,-49 15,-91 46,-126 32,-34 70,-51 117,-51 48,0 87,17 115,51 29,34 43,77 43,129 0,6 0,12 -1,18l-269 0c4,34 17,62 39,82 23,20 50,31 81,31 40,0 76,-16 107,-48l31 28c-38,42 -85,64 -140,64zm-118 -198l219 0c-3,-33 -14,-60 -33,-82 -18,-22 -44,-32 -76,-32 -28,0 -53,10 -74,32 -20,21 -32,49 -36,82zm373 295l0 -445 50 0 0 68c34,-50 78,-75 130,-75 44,0 82,16 114,48 32,32 49,75 49,129 0,53 -17,96 -49,128 -32,33 -70,49 -114,49 -53,0 -96,-24 -130,-72l0 170 -50 0zm171 -143c34,0 63,-12 86,-36 22,-24 34,-56 34,-96 0,-39 -12,-71 -35,-95 -23,-25 -52,-37 -85,-37 -33,0 -61,13 -86,38 -24,25 -37,56 -37,94 0,38 13,70 37,95 25,24 53,37 86,37zm279 38l0 -340 230 0 0 45 -180 0 0 295 -50 0zm318 0l0 -340 50 0 0 269 202 -269 49 0 0 340 -50 0 0 -269 -203 269 -48 0zm398 0l104 -132c-27,-6 -49,-18 -66,-36 -16,-18 -25,-40 -25,-66 0,-32 12,-57 34,-77 23,-19 54,-29 94,-29l160 0 0 340 -51 0 0 -124 -94 0c-4,6 -17,23 -40,54 -24,31 -41,54 -54,70l-62 0zm145 -166l105 0 0 -129 -106 0c-25,0 -45,5 -59,16 -14,12 -21,27 -21,47 0,20 7,36 22,48 16,12 35,18 59,18zm466 166l0 -340 51 0 0 269 202 -269 49 0 0 340 -51 0 0 -269 -202 269 -49 0zm536 8c-52,0 -99,-17 -140,-51l25 -37c35,29 73,44 114,44 23,0 43,-6 60,-16 16,-11 24,-26 24,-45 0,-17 -7,-31 -22,-41 -15,-10 -36,-15 -63,-15l-46 0 0 -41 46 0c23,0 41,-5 55,-16 14,-11 21,-25 21,-43 0,-15 -7,-27 -21,-36 -13,-10 -31,-14 -53,-14 -40,0 -74,11 -103,34l-25 -35c37,-29 81,-43 132,-43 37,0 67,8 89,25 23,17 34,39 34,66 0,37 -19,63 -55,78 42,15 63,42 63,83 0,29 -12,53 -37,73 -24,20 -57,30 -98,30zm243 -8l0 -340 48 0 127 179 127 -179 48 0 0 340 -51 0 0 -259 -126 172 -124 -172 0 259 -49 0zm626 8c-48,0 -88,-17 -121,-50 -33,-33 -49,-76 -49,-128 0,-49 16,-91 47,-126 31,-34 69,-51 116,-51 49,0 87,17 116,51 28,34 42,77 42,129 0,6 0,12 0,18l-270 0c4,34 17,62 39,82 23,20 50,31 81,31 41,0 76,-16 107,-48l31 28c-38,42 -84,64 -139,64zm-119 -198l219 0c-3,-33 -14,-60 -32,-82 -19,-22 -44,-32 -76,-32 -29,0 -54,10 -75,32 -20,21 -32,49 -36,82zm373 190l0 -340 50 0 0 147 196 0 0 -147 51 0 0 340 -51 0 0 -149 -196 0 0 149 -50 0zm572 8c-48,0 -88,-17 -120,-50 -33,-33 -49,-76 -49,-128 0,-49 15,-91 46,-126 31,-34 70,-51 117,-51 48,0 87,17 115,51 29,34 43,77 43,129 0,6 0,12 -1,18l-269 0c3,34 16,62 39,82 23,20 49,31 81,31 40,0 76,-16 107,-48l31 28c-38,42 -85,64 -140,64zm-118 -198l219 0c-3,-33 -14,-60 -33,-82 -18,-22 -44,-32 -76,-32 -29,0 -53,10 -74,32 -21,21 -33,49 -36,82zm373 190l0 -340 50 0 0 147 196 0 0 -147 51 0 0 340 -51 0 0 -149 -196 0 0 149 -50 0zm423 0l0 -340 51 0 0 269 202 -269 49 0 0 340 -51 0 0 -269 -202 269 -49 0zm429 0l0 -340 50 0 0 269 202 -269 49 0 0 340 -50 0 0 -269 -203 269 -48 0zm210 -411c-16,15 -37,22 -61,22 -24,0 -45,-7 -61,-22 -17,-15 -28,-34 -32,-58l35 -7c9,31 28,46 58,46 30,0 49,-15 58,-46l35 7c-4,24 -15,43 -32,58z"/>
   <path class="fil3" d="M610 1819l238 -230c-87,-97 -135,-221 -135,-352 0,-139 55,-272 154,-370 98,-99 231,-154 370,-154 114,0 222,36 312,103l0 183 33 31 0 2 239 230 0 -1 21 20 0 -644c-1,-1 -5,-7 -6,-9 -5,-6 -10,-11 -15,-16l0 0 -4 -4 -7 -8 -2 0c-85,-79 -186,-139 -296,-177 -215,-75 -449,-62 -654,37 -205,99 -361,274 -436,489 -71,204 -62,427 25,624 10,21 45,84 53,98 31,53 68,103 110,148z"/>
  </g>
 </g>
</svg>
